<svg xmlns="http://www.w3.org/2000/svg" viewBox="0 0 283.46 73.7"><defs><style>.a{fill:#aeb917;}.b{fill:#d2d22d;}.c{fill:#a2ab20;}.d{fill:#bfc105;}.e{fill:#687425;}.f{fill:#899424;}.g{fill:#aeba16;}.h{fill:#fbf8fc;}.i{fill:#160d1b;}.j{fill:#adb816;}.k{fill:#d3d330;}.l{fill:#a1ab1d;}.m{fill:#bdc015;}.n{fill:#687024;}.o{fill:#899124;}.p{fill:#afba14;}</style></defs><path class="a" d="M83.34,24.46a7.77,7.77,0,0,0-2.45-1V.26A37.1,37.1,0,0,1,85.21,0a36.65,36.65,0,0,1,17.93,4.66Z"/><path class="b" d="M49.12,29.35A36.75,36.75,0,0,1,57.8,12.23L72.52,26.95a7.78,7.78,0,0,0-1,2.4Z"/><path class="c" d="M85.78,26.9,106.14,6.54a36.89,36.89,0,0,1,15.15,22.81H86.79A7.78,7.78,0,0,0,85.78,26.9Z"/><path class="d" d="M60.31,9.7A36.76,36.76,0,0,1,77.44.83V23.44a7.77,7.77,0,0,0-2.4,1Z"/><path class="e" d="M80.89,38.71a7.77,7.77,0,0,0,2.4-1l26.54,26.54A36.71,36.71,0,0,1,85.21,73.7a37.1,37.1,0,0,1-4.32-.26Z"/><path class="f" d="M85.81,35.2a7.77,7.77,0,0,0,1-2.4h35a37.15,37.15,0,0,1,.23,4.05,36.71,36.71,0,0,1-9.7,24.9Z"/><path class="g" d="M8.42,65.28H46.06V61.83H11.88l7.05-7.05H46.06V51.32H22.38l7.05-7.05H46.06V40.82H32.88l8-8H71.53a7.84,7.84,0,0,0,5.91,5.91v35H0Z"/><path class="h" d="M63.81,44A9.23,9.23,0,1,0,73,53.25,9.24,9.24,0,0,0,63.81,44Z"/><path class="e" d="M63.81,50.53a2.72,2.72,0,1,0,2.72,2.72A2.72,2.72,0,0,0,63.81,50.53Z"/><path class="i" d="M268.18,33.66A3.14,3.14,0,1,1,265,36.8,3.15,3.15,0,0,1,268.18,33.66Zm-112,31.75V52.6a24.84,24.84,0,0,0,6.91,1,18.44,18.44,0,0,0,5.29-.72,16,16,0,0,0,4.72-2.37,10.74,10.74,0,0,0,3.64-5.07A22.94,22.94,0,0,0,178,37.15a25.22,25.22,0,0,0-1-7.45,14.43,14.43,0,0,0-2.49-5A12.16,12.16,0,0,0,171,21.8a13,13,0,0,0-3.78-1.43,19.59,19.59,0,0,0-3.54-.32,19.9,19.9,0,0,0-6.19.87,11.13,11.13,0,0,0-4,2.08,9.24,9.24,0,0,0-2.11,2.8,10.79,10.79,0,0,0-1,2.62,11.43,11.43,0,0,0-.19,2.08v34.9Zm0-35.28q0-4.86,7.51-4.86a9.93,9.93,0,0,1,3,.41,7.73,7.73,0,0,1,2.64,1.56,7.33,7.33,0,0,1,2.05,3.64,23.21,23.21,0,0,1,.72,6.28,20,20,0,0,1-.72,5.83,6.7,6.7,0,0,1-2.09,3.38,7.77,7.77,0,0,1-2.79,1.46,13.31,13.31,0,0,1-3.42.38,19,19,0,0,1-6.91-1.3ZM187,45.45a10.89,10.89,0,0,0,3.61,5.08,15.55,15.55,0,0,0,4.7,2.37,18.49,18.49,0,0,0,5.28.72h.19a29,29,0,0,0,11.35-2.12V46.09a23.82,23.82,0,0,1-11.22,2.44q-8.07,0-9.15-8.36h22.44q.19-2.14.19-4.46,0-7.15-3.89-11.4A13.42,13.42,0,0,0,200,20.06H200q-14.33,0-14.33,17.13A23,23,0,0,0,187,45.45Zm7-17.94q1.92-2.11,6-2.11a8.08,8.08,0,0,1,3.94.91,6.36,6.36,0,0,1,2.53,2.43,13.76,13.76,0,0,1,1.3,3,15.3,15.3,0,0,1,.56,3.1H191.62Q192,29.62,194,27.51ZM230.23,53h6.1l12.49-32.48h-6.36l-9.18,25.33-9.12-25.33h-6.36Zm27.71-2.65a15.6,15.6,0,0,0,4.84,2.44,20.77,20.77,0,0,0,10.82,0,15.58,15.58,0,0,0,4.83-2.44,11.38,11.38,0,0,0,3.74-5.18,22.76,22.76,0,0,0,1.37-8.39,22.76,22.76,0,0,0-1.37-8.39,11.38,11.38,0,0,0-3.74-5.18,15.58,15.58,0,0,0-4.83-2.44,20.77,20.77,0,0,0-10.82,0,15.6,15.6,0,0,0-4.84,2.44,11.39,11.39,0,0,0-3.73,5.18,22.76,22.76,0,0,0-1.37,8.39,22.76,22.76,0,0,0,1.37,8.39A11.39,11.39,0,0,0,257.94,50.4Zm3.82-23a7.79,7.79,0,0,1,2.89-1.52,16.67,16.67,0,0,1,7.07,0,7.79,7.79,0,0,1,2.89,1.52,6.85,6.85,0,0,1,2.14,3.49,21,21,0,0,1,.72,6,21,21,0,0,1-.72,6,6.85,6.85,0,0,1-2.14,3.49,7.8,7.8,0,0,1-2.89,1.52,16.7,16.7,0,0,1-7.07,0,7.8,7.8,0,0,1-2.89-1.52,6.85,6.85,0,0,1-2.14-3.49,21,21,0,0,1-.71-6,21,21,0,0,1,.71-6A6.85,6.85,0,0,1,261.76,27.35Z"/><path class="j" d="M83.25,24.43a7.77,7.77,0,0,0-2.44-1V.26A37.06,37.06,0,0,1,85.12,0,36.61,36.61,0,0,1,103,4.66Z"/><path class="k" d="M49.07,29.32a36.72,36.72,0,0,1,8.67-17.1l14.7,14.7a7.77,7.77,0,0,0-1,2.4Z"/><path class="l" d="M85.69,26.87,106,6.53a36.85,36.85,0,0,1,15.13,22.79H86.7A7.77,7.77,0,0,0,85.69,26.87Z"/><path class="m" d="M60.24,9.69A36.72,36.72,0,0,1,77.35.83V23.42a7.76,7.76,0,0,0-2.4,1Z"/><path class="n" d="M80.8,38.67a7.77,7.77,0,0,0,2.4-1l26.51,26.51a36.67,36.67,0,0,1-24.59,9.44,37.06,37.06,0,0,1-4.31-.26Z"/><path class="o" d="M85.72,35.16a7.76,7.76,0,0,0,1-2.4h35a37.11,37.11,0,0,1,.23,4,36.67,36.67,0,0,1-9.69,24.87Z"/><path class="p" d="M8.41,65.21H46V61.76H11.86l7-7H46V51.27H22.36l7-7H46V40.77H32.85l8-8h30.6a7.83,7.83,0,0,0,5.9,5.9v35H0Z"/><path class="h" d="M63.75,44A9.22,9.22,0,1,0,73,53.19,9.23,9.23,0,0,0,63.75,44Z"/><path class="n" d="M63.75,50.48a2.72,2.72,0,1,0,2.72,2.72A2.72,2.72,0,0,0,63.75,50.48Z"/></svg>